<svg xmlns="http://www.w3.org/2000/svg" viewBox="0 0 540 540"><title>Asset 2</title><g id="Layer_2" data-name="Layer 2"><g id="Layer_5" data-name="Layer 5"><path d="M271,29.75A240.31,240.31,0,0,0,63.88,391.82a241.61,241.61,0,0,0,87,86.28,4,4,0,0,0,5.27-1.16l37.15-52.63a4,4,0,0,0-1-5.57,3.93,3.93,0,0,0-.38-.22v0c-50.8-28.07-83.93-84.58-85.13-144.64L205,270.15v19.48L139.88,301l-.15,0-.2,0-.24.09-.34.13-.39.2-.29.18a3.92,3.92,0,0,0-.35.28l-.23.22a4,4,0,0,0-.29.34l-.18.26a4,4,0,0,0-.22.39c0,.1-.09.19-.14.3a4,4,0,0,0-.14.42c0,.11-.06.21-.08.32a4,4,0,0,0-.06.44c0,.11,0,.22,0,.34a4,4,0,0,0,0,.46c0,.07,0,.13,0,.2s0,.11,0,.17,0,.12,0,.17A138.74,138.74,0,0,0,223,400.47v31.38l-36.39,58a4,4,0,1,0,6.78,4.25l37.61-60V397.66s0-.09,0-.14,0-.26,0-.38a4,4,0,0,0-.07-.41c0-.1-.06-.21-.1-.31a4,4,0,0,0-.16-.43c0-.09-.09-.17-.14-.26a4,4,0,0,0-.25-.4c-.06-.08-.13-.16-.19-.23a4,4,0,0,0-.31-.34l-.24-.2a4,4,0,0,0-.38-.28l-.26-.14a3.94,3.94,0,0,0-.46-.21l-.1,0a131,131,0,0,1-49.88-31.11A117.27,117.27,0,0,1,271,317c39,0,71.84,16.15,92.82,45.55a90.94,90.94,0,0,1-13,12.94C329.51,392.42,302.66,401,271,401a4,4,0,0,0-4,4v33l-34.54,62.8a4,4,0,0,0,3.5,5.93H304a4,4,0,0,0,3.55-5.84L275,438V408.93c31.78-.71,58.95-9.82,80.79-27.17,22.78-18.09,44-56.88,54.1-98.82a4,4,0,0,0-3.45-4.91l-81-9a4,4,0,0,0-4.44,4v24a4,4,0,0,0,2.29,3.62l38.18,18a4,4,0,1,0,3.41-7.24L329,294.46v-17l72,8c-7,27-18.65,52.18-32.07,70.53-17.79-23.94-43-39.34-72.93-44.78V246.34c31.9-7.17,57.89-39.28,75.52-65a116,116,0,0,1,22.33,36.06c5.27,13.59,5.27,13.59,8.15,28l.08.39a4,4,0,1,0,7.84-1.57l-.08-.39c-3-14.93-3.06-15.2-8.53-29.3C381.62,163.79,330.47,131,271,131a138.73,138.73,0,0,0-32.3,3.81l-6.82-24.25a165.37,165.37,0,0,1,39.62-4.81,169.84,169.84,0,0,1,71.92,15.63c39.88,18.47,69.62,51,83.77,91.72,1.6,4.59,2.72,7.58,3.54,9.76,2.21,5.88,2.5,6.64,5.35,20.93a4,4,0,1,0,7.84-1.57c-3-14.93-3.4-16-5.71-22.18-.85-2.26-1.91-5.08-3.47-9.57-13.85-39.82-41.91-72.24-79.53-92.16l10.61-22.74a198.62,198.62,0,0,1,76.73,274.36,4,4,0,1,0,6.91,4A206.62,206.62,0,0,0,217.54,70.49a4,4,0,0,0,2.07,7.73A199.11,199.11,0,0,1,271,71.5a196.23,196.23,0,0,1,87.7,20.4L348,114.72l-1.27-.61A177.77,177.77,0,0,0,271.5,97.75a173.15,173.15,0,0,0-45.64,6.09,4,4,0,0,0-2.8,4.91c0,.05,0,.1.06.15s0,.12,0,.18L231,136.89a139.15,139.15,0,0,0-93.39,94l-25.7-1.35A165.1,165.1,0,0,1,199.7,122.17h0a4,4,0,0,0,2-5L189.13,85a4,4,0,0,0-5.42-2.17,206.55,206.55,0,0,0-45.45,345.39,4,4,0,1,0,5.15-6.12A198.54,198.54,0,0,1,183.24,91.9l9.66,24.74A173,173,0,0,0,103,232.4h0a3.94,3.94,0,0,0,3.68,4.87l33.7,1.77h.21l.19,0a4,4,0,0,0,.49,0,3.89,3.89,0,0,0,.38-.09l.28-.08.39-.17.22-.12.37-.24.18-.14a4,4,0,0,0,.34-.31l.12-.14a4,4,0,0,0,.32-.4v0a4,4,0,0,0,.58-1.33,131.12,131.12,0,0,1,90.89-92,4,4,0,0,0,3.18-.86A130.74,130.74,0,0,1,271,139c37.21,0,70.93,13.53,94.82,36.51-17.4,25.56-43.47,58.39-74.48,63.59A4,4,0,0,0,288,243h0v67a142.75,142.75,0,0,0-17-1,122.88,122.88,0,0,0-16,1.06V243.11a4,4,0,0,0-3.13-4.14c-19.79-4.31-35.79-16.49-48.85-37.17a95.43,95.43,0,0,1,48.47-26.1A23.49,23.49,0,1,0,271,166v-.26a103.52,103.52,0,0,0-75.74,32.55h0l-.19.19h0a4,4,0,0,0-.54,4.79C208.4,226.45,225.59,240.45,247,246v65.36a125.61,125.61,0,0,0-74.13,45.5,130.7,130.7,0,0,1-27.23-48.76L213,296.36V261.85L102.85,266A4,4,0,0,0,99,270.15c0,.12,0,.23,0,.35h-.3c0,62.64,33.41,122.08,85.45,152.77l-32.49,46A232.14,232.14,0,0,1,38.75,270,232.25,232.25,0,0,1,435.23,105.77a232.36,232.36,0,0,1,36,282A233.61,233.61,0,0,1,390,469.48l-19.87-23.41c20.09-11.62,44.46-26,59-43.33a4,4,0,0,0-6.12-5.15c-14.13,16.82-38.87,31.12-58.75,42.6L362,441.54a4,4,0,0,0-1,6l25.14,29.63a4,4,0,0,0,5.05.87A240.15,240.15,0,0,0,511.25,270,240.25,240.25,0,0,0,271,29.75ZM242.73,498.7l28.16-51.21,26.55,51.21ZM286,189.5A15.5,15.5,0,1,1,270.5,174,15.52,15.52,0,0,1,286,189.5Z"/><path d="M321,436c26.61-8,51.38-23.21,71.92-44.12,25.31-25.76,44.16-73.06,51-106.1a4,4,0,0,0-7.84-1.61c-9.38,45.55-31.89,84.86-48.83,102.11-20.85,21.22-46.22,36.25-73.38,43.45a4,4,0,0,0-2.84,4.89c0,.07,0,.12.07.19a4,4,0,0,0,.53,1.32l37,58a4,4,0,1,0,6.74-4.3Z"/><path d="M270,0C120.88,0,0,120.88,0,270S120.88,540,270,540,540,419.12,540,270,419.12,0,270,0ZM455.26,455.26A261.16,261.16,0,1,1,511.41,372,261.14,261.14,0,0,1,455.26,455.26Z"/></g></g></svg>