<?xml version="1.0" encoding="utf-8"?>
<!-- Generator: Adobe Illustrator 21.0.0, SVG Export Plug-In . SVG Version: 6.00 Build 0)  -->
<svg version="1.1" id="Layer_1" xmlns="http://www.w3.org/2000/svg" xmlns:xlink="http://www.w3.org/1999/xlink" x="0px" y="0px"
	 viewBox="0 0 1280 1024" style="enable-background:new 0 0 1280 1024;" xml:space="preserve">
<g>
	<path d="M641,271.8c-64.2,0-124.5,25-169.9,70.4S400.8,447.8,400.8,512c0,42.9,11.5,85,33.1,121.8c21,35.7,51.1,65.5,87,86.3
		c1.8,1,4.1,0.5,5.3-1.2l37.1-52.6c1.3-1.8,0.8-4.3-1-5.6c-0.1-0.1-0.3-0.1-0.4-0.2l0,0c-50.8-28.1-83.9-84.6-85.1-144.6l98.2-3.7
		v19.5L509.9,543c-2.3,0.4-3.8,2.8-3.2,5c11.7,43.8,43.9,78.9,86.3,94.5v31.4l-36.4,58c-1.2,1.9-0.6,4.3,1.3,5.5
		c0.7,0.4,1.4,0.6,2.1,0.6c1.3,0,2.6-0.7,3.4-1.9l37.6-60v-36.5c0-1.7-1.1-3.2-2.7-3.8c-19.1-6.6-36-17.3-49.9-31.1
		c22.1-28.7,56.5-45.8,92.6-45.8c39,0,71.8,16.1,92.8,45.6c-4.2,5.1-8.6,9.4-13,12.9C699.5,634.4,672.7,643,641,643
		c-2.2,0-4,1.8-4,4v33l-34.5,62.8c-0.7,1.2-0.7,2.7,0.1,4c0.7,1.2,2,2,3.4,2H674c1.4,0,2.7-0.7,3.4-1.9c0.7-1.2,0.8-2.7,0.1-3.9
		L645,680v-29.1c31.8-0.7,58.9-9.8,80.8-27.2c22.8-18.1,44-56.9,54.1-98.8c0.3-1.1,0-2.3-0.6-3.2c-0.7-0.9-1.7-1.6-2.8-1.7l-81-9
		c-1.1-0.1-2.3,0.2-3.1,1c-0.8,0.8-1.3,1.8-1.3,3v24c0,1.5,0.9,3,2.3,3.6l38.2,18c2,0.9,4.4,0.1,5.3-1.9c0.9-2,0.1-4.4-1.9-5.3
		L699,536.5v-17l72,8c-7,27-18.7,52.2-32.1,70.5c-17.8-23.9-43-39.3-72.9-44.8v-64.9c31.9-7.2,57.9-39.3,75.5-65
		c9.5,10.5,17.1,22.6,22.3,36.1c5.3,13.6,5.3,13.6,8.1,28l0.1,0.4c0.4,1.9,2,3.2,3.9,3.2c0.3,0,0.5,0,0.8-0.1
		c2.2-0.4,3.6-2.5,3.1-4.7l-0.1-0.4c-3-14.9-3.1-15.2-8.5-29.3C751.6,405.8,700.5,373,641,373c-11.1,0-21.9,1.3-32.3,3.8l-6.8-24.2
		c12.9-3.2,26.2-4.8,39.6-4.8c25.3,0,49.5,5.3,71.9,15.6c39.9,18.5,69.6,51,83.8,91.7c1.6,4.6,2.7,7.6,3.5,9.8
		c2.2,5.9,2.5,6.6,5.4,20.9c0.4,1.9,2,3.2,3.9,3.2c0.3,0,0.5,0,0.8-0.1c2.2-0.4,3.6-2.5,3.1-4.7c-3-14.9-3.4-16-5.7-22.2
		c-0.9-2.3-1.9-5.1-3.5-9.6c-13.8-39.8-41.9-72.2-79.5-92.2l10.6-22.7c64.1,34.9,103.7,101.3,103.7,174.4c0,35.2-9.3,69.7-27,99.9
		c-1.1,1.9-0.5,4.4,1.4,5.5c0.6,0.4,1.3,0.5,2,0.5c1.4,0,2.7-0.7,3.5-2c18.3-31.4,28-67.4,28-104c0-77.5-42.8-147.8-111.7-183.5
		c-29.1-15.1-61.9-23-94.8-23c-18.1,0-36.1,2.4-53.5,7c-2.1,0.6-3.4,2.8-2.8,4.9c0.6,2.1,2.8,3.4,4.9,2.8c16.7-4.5,34-6.7,51.4-6.7
		c30.8,0,60.3,6.9,87.7,20.4L718,356.7c-0.4-0.2-0.8-0.4-1.3-0.6c-23.4-10.9-48.8-16.4-75.3-16.4c-15.5,0-30.8,2-45.6,6.1
		c-2.1,0.6-3.4,2.8-2.8,4.9c0,0.1,0,0.1,0.1,0.2c0,0.1,0,0.1,0,0.2l7.8,27.8c-44.2,13.3-80,48.2-93.4,94l-25.7-1.4
		c5.7-22.4,16.3-43.7,30.8-61.8c15.3-19.1,35-34.9,57-45.6l0,0c1.9-0.9,2.8-3.1,2-5L559.1,327c-0.4-1-1.2-1.8-2.2-2.3
		c-1-0.4-2.2-0.4-3.2,0.1c-35.1,16.4-64.8,42.3-86,74.9c-21.7,33.4-33.2,72.3-33.2,112.3c0,61.2,26.9,118.8,73.8,158.2
		c0.7,0.6,1.7,0.9,2.6,0.9c1.1,0,2.3-0.5,3.1-1.4c1.4-1.7,1.2-4.2-0.5-5.6c-45.1-37.9-70.9-93.3-70.9-152.1c0-38.5,11-75.8,31.9-108
		c19.6-30.1,46.8-54.3,78.8-70.1l9.7,24.7c-21.7,11.1-41.2,27-56.4,46.1c-16.2,20.3-27.8,44.4-33.5,69.7l0,0c0,0.2-0.1,0.4-0.1,0.7
		c-0.1,2.2,1.6,4.1,3.8,4.2l33.7,1.8c1.4,0.1,2.7-0.6,3.5-1.8c0.3-0.4,0.5-0.8,0.6-1.3c12.1-45.3,47.3-79.7,90.9-92
		c0.2,0,0.4,0.1,0.6,0.1c0.4,0,0.7,0,1.1-0.2c0.6-0.2,1-0.4,1.5-0.8c10.4-2.7,21.3-4.1,32.5-4.1c37.2,0,70.9,13.5,94.8,36.5
		c-17.4,25.6-43.5,58.4-74.5,63.6c-1.9,0.3-3.3,2-3.3,3.9h0v67c-5.5-0.7-11.2-1-17-1c-5.4,0-10.7,0.4-16,1.1v-66.9
		c0.1-1.9-1.2-3.7-3.1-4.1c-19.8-4.3-35.8-16.5-48.9-37.2c13.5-13.4,30.2-22.4,48.5-26.1c-2.8,3.9-4.5,8.6-4.5,13.8
		c0,13,10.5,23.5,23.5,23.5s23.5-10.5,23.5-23.5c0-12.8-10.3-23.2-23-23.5v-0.3c-28.9,0-55.8,11.6-75.7,32.5c0,0,0,0,0,0
		c-0.1,0.1-0.1,0.1-0.2,0.2l0,0c-1.2,1.3-1.5,3.2-0.5,4.8c13.9,23.1,31.1,37.1,52.5,42.7v65.4c-29,5.8-55.5,21.8-74.1,45.5
		c-12.3-13.9-21.7-30.5-27.2-48.8l67.4-11.8v-34.5L472.8,508c-2.2,0.1-3.9,1.9-3.8,4.1c0,0.1,0,0.2,0,0.3h-0.3
		c0,62.6,33.4,122.1,85.5,152.8l-32.5,46c-33.3-20-61.2-48.1-80.9-81.6c-20.9-35.5-32-76.3-32-117.8c0-62,24.2-120.4,68-164.2
		s102.2-68,164.2-68s120.4,24.2,164.2,68s68,102.2,68,164.2c0,41.5-11.1,82.2-32,117.8c-19.8,33.6-47.8,61.7-81.2,81.7l-19.9-23.4
		c20.1-11.6,44.5-26,59-43.3c1.4-1.7,1.2-4.2-0.5-5.6c-1.7-1.4-4.2-1.2-5.6,0.5c-14.1,16.8-38.9,31.1-58.7,42.6l-2.3,1.3
		c-1,0.6-1.7,1.6-1.9,2.8c-0.2,1.2,0.1,2.4,0.9,3.3l25.1,29.6c0.8,0.9,1.9,1.4,3.1,1.4c0.7,0,1.4-0.2,2-0.5
		c35.9-20.7,65.9-50.6,87-86.3c21.7-36.8,33.1-78.9,33.1-121.8c0-64.2-25-124.5-70.4-169.9C765.5,296.7,705.2,271.8,641,271.8z
		 M612.7,740.7l28.2-51.2l26.6,51.2H612.7z M656,431.5c0,8.5-7,15.5-15.5,15.5s-15.5-7-15.5-15.5s7-15.5,15.5-15.5
		S656,423,656,431.5z"/>
	<path d="M691,678c26.6-8,51.4-23.2,71.9-44.1c25.3-25.8,44.2-73.1,51-106.1c0.4-2.2-0.9-4.3-3.1-4.7c-2.2-0.4-4.3,0.9-4.7,3.1
		c-9.4,45.5-31.9,84.9-48.8,102.1c-20.8,21.2-46.2,36.2-73.4,43.5c-2.1,0.6-3.4,2.8-2.8,4.9c0,0.1,0,0.1,0.1,0.2
		c0.1,0.5,0.3,0.9,0.5,1.3l37,58c0.8,1.2,2.1,1.8,3.4,1.8c0.7,0,1.5-0.2,2.1-0.6c1.9-1.2,2.4-3.7,1.2-5.5L691,678z"/>
	<path d="M640,242c-149.1,0-270,120.9-270,270s120.9,270,270,270s270-120.9,270-270S789.1,242,640,242z M825.3,697.3
		c-24.1,24.1-52.1,43-83.3,56.2c-32.3,13.7-66.6,20.6-102,20.6s-69.7-6.9-102-20.6c-31.2-13.2-59.2-32.1-83.3-56.2
		c-24.1-24.1-43-52.1-56.2-83.3c-13.7-32.3-20.6-66.6-20.6-102c0-35.4,6.9-69.7,20.6-102c13.2-31.2,32.1-59.2,56.2-83.3
		c24.1-24.1,52.1-43,83.3-56.2c32.3-13.7,66.6-20.6,102-20.6s69.7,6.9,102,20.6c31.2,13.2,59.2,32.1,83.3,56.2
		c24.1,24.1,43,52.1,56.2,83.3c13.7,32.3,20.6,66.6,20.6,102c0,35.4-6.9,69.7-20.6,102C868.2,645.2,849.3,673.2,825.3,697.3z"/>
</g>
</svg>
